<mxfile host="app.diagrams.net" modified="2023-04-21T06:42:51.984Z" agent="Mozilla/5.0 (Windows NT 10.0; Win64; x64) AppleWebKit/537.36 (KHTML, like Gecko) Chrome/112.0.0.0 Safari/537.36 Edg/112.0.1722.48" etag="JtTTUEGD6euAQW-da67u" version="21.2.1" type="github">
  <diagram name="Page-1" id="13e1069c-82ec-6db2-03f1-153e76fe0fe0">
    <mxGraphModel dx="1054" dy="733" grid="1" gridSize="10" guides="1" tooltips="1" connect="1" arrows="1" fold="1" page="1" pageScale="1" pageWidth="1100" pageHeight="850" background="none" math="0" shadow="0">
      <root>
        <mxCell id="0" />
        <mxCell id="1" parent="0" />
        <mxCell id="7baba1c4bc27f4b0-2" value="adoConnetion_open" style="shape=umlLifeline;perimeter=lifelinePerimeter;whiteSpace=wrap;html=1;container=1;collapsible=0;recursiveResize=0;outlineConnect=0;rounded=1;shadow=0;comic=0;labelBackgroundColor=none;strokeWidth=1;fontFamily=Verdana;fontSize=12;align=center;" parent="1" vertex="1">
          <mxGeometry x="240" y="80" width="100" height="580" as="geometry" />
        </mxCell>
        <mxCell id="SwzVnExBsduJIMRhlSxg-2" value="" style="html=1;points=[];perimeter=orthogonalPerimeter;outlineConnect=0;targetShapes=umlLifeline;portConstraint=eastwest;newEdgeStyle={&quot;edgeStyle&quot;:&quot;elbowEdgeStyle&quot;,&quot;elbow&quot;:&quot;vertical&quot;,&quot;curved&quot;:0,&quot;rounded&quot;:0};" vertex="1" parent="7baba1c4bc27f4b0-2">
          <mxGeometry x="45" y="110" width="10" height="30" as="geometry" />
        </mxCell>
        <mxCell id="SwzVnExBsduJIMRhlSxg-6" value="" style="endArrow=classic;html=1;rounded=0;" edge="1" parent="7baba1c4bc27f4b0-2" target="SwzVnExBsduJIMRhlSxg-8">
          <mxGeometry width="50" height="50" relative="1" as="geometry">
            <mxPoint x="-85" y="155" as="sourcePoint" />
            <mxPoint x="209.5" y="155" as="targetPoint" />
            <Array as="points">
              <mxPoint x="-15" y="155" />
            </Array>
          </mxGeometry>
        </mxCell>
        <mxCell id="SwzVnExBsduJIMRhlSxg-7" value="Call" style="edgeLabel;html=1;align=center;verticalAlign=middle;resizable=0;points=[];" vertex="1" connectable="0" parent="SwzVnExBsduJIMRhlSxg-6">
          <mxGeometry x="0.2786" y="3" relative="1" as="geometry">
            <mxPoint x="-19" y="3" as="offset" />
          </mxGeometry>
        </mxCell>
        <mxCell id="SwzVnExBsduJIMRhlSxg-22" value="" style="html=1;verticalAlign=bottom;endArrow=open;dashed=1;endSize=8;edgeStyle=elbowEdgeStyle;elbow=vertical;curved=0;rounded=0;" edge="1" parent="7baba1c4bc27f4b0-2" target="7baba1c4bc27f4b0-8">
          <mxGeometry relative="1" as="geometry">
            <mxPoint x="205" y="240" as="sourcePoint" />
            <mxPoint x="-70" y="240" as="targetPoint" />
            <Array as="points">
              <mxPoint x="110" y="240" />
            </Array>
          </mxGeometry>
        </mxCell>
        <mxCell id="7baba1c4bc27f4b0-4" value="getUserID" style="shape=umlLifeline;perimeter=lifelinePerimeter;whiteSpace=wrap;html=1;container=1;collapsible=0;recursiveResize=0;outlineConnect=0;rounded=1;shadow=0;comic=0;labelBackgroundColor=none;strokeWidth=1;fontFamily=Verdana;fontSize=12;align=center;" parent="1" vertex="1">
          <mxGeometry x="400" y="80" width="100" height="580" as="geometry" />
        </mxCell>
        <mxCell id="SwzVnExBsduJIMRhlSxg-8" value="" style="html=1;points=[];perimeter=orthogonalPerimeter;outlineConnect=0;targetShapes=umlLifeline;portConstraint=eastwest;newEdgeStyle={&quot;edgeStyle&quot;:&quot;elbowEdgeStyle&quot;,&quot;elbow&quot;:&quot;vertical&quot;,&quot;curved&quot;:0,&quot;rounded&quot;:0};" vertex="1" parent="7baba1c4bc27f4b0-4">
          <mxGeometry x="45" y="155" width="10" height="95" as="geometry" />
        </mxCell>
        <mxCell id="7baba1c4bc27f4b0-5" value="getLocalID" style="shape=umlLifeline;perimeter=lifelinePerimeter;whiteSpace=wrap;html=1;container=1;collapsible=0;recursiveResize=0;outlineConnect=0;rounded=1;shadow=0;comic=0;labelBackgroundColor=none;strokeWidth=1;fontFamily=Verdana;fontSize=12;align=center;" parent="1" vertex="1">
          <mxGeometry x="540" y="80" width="100" height="580" as="geometry" />
        </mxCell>
        <mxCell id="SwzVnExBsduJIMRhlSxg-9" value="" style="html=1;points=[];perimeter=orthogonalPerimeter;outlineConnect=0;targetShapes=umlLifeline;portConstraint=eastwest;newEdgeStyle={&quot;edgeStyle&quot;:&quot;elbowEdgeStyle&quot;,&quot;elbow&quot;:&quot;vertical&quot;,&quot;curved&quot;:0,&quot;rounded&quot;:0};" vertex="1" parent="7baba1c4bc27f4b0-5">
          <mxGeometry x="45" y="158" width="10" height="31" as="geometry" />
        </mxCell>
        <mxCell id="SwzVnExBsduJIMRhlSxg-11" value="" style="endArrow=classic;html=1;rounded=0;" edge="1" parent="7baba1c4bc27f4b0-5" target="SwzVnExBsduJIMRhlSxg-9">
          <mxGeometry width="50" height="50" relative="1" as="geometry">
            <mxPoint x="-85" y="163" as="sourcePoint" />
            <mxPoint x="40" y="163" as="targetPoint" />
            <Array as="points">
              <mxPoint x="-15" y="163" />
            </Array>
          </mxGeometry>
        </mxCell>
        <mxCell id="SwzVnExBsduJIMRhlSxg-12" value="Call" style="edgeLabel;html=1;align=center;verticalAlign=middle;resizable=0;points=[];" vertex="1" connectable="0" parent="SwzVnExBsduJIMRhlSxg-11">
          <mxGeometry x="0.2786" y="3" relative="1" as="geometry">
            <mxPoint x="-19" y="3" as="offset" />
          </mxGeometry>
        </mxCell>
        <mxCell id="7baba1c4bc27f4b0-6" value="adoRecordset_OpenP" style="shape=umlLifeline;perimeter=lifelinePerimeter;whiteSpace=wrap;html=1;container=1;collapsible=0;recursiveResize=0;outlineConnect=0;rounded=1;shadow=0;comic=0;labelBackgroundColor=none;strokeWidth=1;fontFamily=Verdana;fontSize=12;align=center;" parent="1" vertex="1">
          <mxGeometry x="680" y="80" width="100" height="580" as="geometry" />
        </mxCell>
        <mxCell id="SwzVnExBsduJIMRhlSxg-18" value="" style="html=1;points=[];perimeter=orthogonalPerimeter;outlineConnect=0;targetShapes=umlLifeline;portConstraint=eastwest;newEdgeStyle={&quot;edgeStyle&quot;:&quot;elbowEdgeStyle&quot;,&quot;elbow&quot;:&quot;vertical&quot;,&quot;curved&quot;:0,&quot;rounded&quot;:0};" vertex="1" parent="7baba1c4bc27f4b0-6">
          <mxGeometry x="45" y="200" width="10" height="31" as="geometry" />
        </mxCell>
        <mxCell id="SwzVnExBsduJIMRhlSxg-37" value="" style="endArrow=classic;html=1;rounded=0;" edge="1" parent="7baba1c4bc27f4b0-6">
          <mxGeometry width="50" height="50" relative="1" as="geometry">
            <mxPoint x="-525" y="323" as="sourcePoint" />
            <mxPoint x="319.49999999999955" y="323" as="targetPoint" />
            <Array as="points">
              <mxPoint x="-455" y="323" />
            </Array>
          </mxGeometry>
        </mxCell>
        <mxCell id="SwzVnExBsduJIMRhlSxg-38" value="Call" style="edgeLabel;html=1;align=center;verticalAlign=middle;resizable=0;points=[];" vertex="1" connectable="0" parent="SwzVnExBsduJIMRhlSxg-37">
          <mxGeometry x="0.2786" y="3" relative="1" as="geometry">
            <mxPoint x="-19" y="3" as="offset" />
          </mxGeometry>
        </mxCell>
        <mxCell id="7baba1c4bc27f4b0-8" value="funtion onLoad()" style="shape=umlLifeline;perimeter=lifelinePerimeter;whiteSpace=wrap;html=1;container=1;collapsible=0;recursiveResize=0;outlineConnect=0;rounded=1;shadow=0;comic=0;labelBackgroundColor=none;strokeWidth=1;fontFamily=Verdana;fontSize=12;align=center;" parent="1" vertex="1">
          <mxGeometry x="100" y="80" width="100" height="580" as="geometry" />
        </mxCell>
        <mxCell id="7baba1c4bc27f4b0-9" value="" style="html=1;points=[];perimeter=orthogonalPerimeter;rounded=0;shadow=0;comic=0;labelBackgroundColor=none;strokeWidth=1;fontFamily=Verdana;fontSize=12;align=center;" parent="7baba1c4bc27f4b0-8" vertex="1">
          <mxGeometry x="45" y="104" width="10" height="266" as="geometry" />
        </mxCell>
        <mxCell id="7baba1c4bc27f4b0-40" value="modAction" style="shape=note;whiteSpace=wrap;html=1;size=14;verticalAlign=top;align=left;spacingTop=-6;rounded=0;shadow=0;comic=0;labelBackgroundColor=none;strokeWidth=1;fontFamily=Verdana;fontSize=12" parent="1" vertex="1">
          <mxGeometry x="100" y="30" width="100" height="35" as="geometry" />
        </mxCell>
        <mxCell id="7baba1c4bc27f4b0-41" value="modADO" style="shape=note;whiteSpace=wrap;html=1;size=14;verticalAlign=top;align=left;spacingTop=-6;rounded=0;shadow=0;comic=0;labelBackgroundColor=none;strokeWidth=1;fontFamily=Verdana;fontSize=12" parent="1" vertex="1">
          <mxGeometry x="240" y="30" width="100" height="35" as="geometry" />
        </mxCell>
        <mxCell id="7baba1c4bc27f4b0-42" value="modGetUser" style="shape=note;whiteSpace=wrap;html=1;size=14;verticalAlign=top;align=left;spacingTop=-6;rounded=0;shadow=0;comic=0;labelBackgroundColor=none;strokeWidth=1;fontFamily=Verdana;fontSize=12" parent="1" vertex="1">
          <mxGeometry x="400" y="30" width="100" height="35" as="geometry" />
        </mxCell>
        <mxCell id="7baba1c4bc27f4b0-43" value="modGetUser" style="shape=note;whiteSpace=wrap;html=1;size=14;verticalAlign=top;align=left;spacingTop=-6;rounded=0;shadow=0;comic=0;labelBackgroundColor=none;strokeWidth=1;fontFamily=Verdana;fontSize=12" parent="1" vertex="1">
          <mxGeometry x="540" y="30" width="100" height="35" as="geometry" />
        </mxCell>
        <mxCell id="7baba1c4bc27f4b0-44" value="modADO" style="shape=note;whiteSpace=wrap;html=1;size=14;verticalAlign=top;align=left;spacingTop=-6;rounded=0;shadow=0;comic=0;labelBackgroundColor=none;strokeWidth=1;fontFamily=Verdana;fontSize=12" parent="1" vertex="1">
          <mxGeometry x="680" y="30" width="100" height="35" as="geometry" />
        </mxCell>
        <mxCell id="7baba1c4bc27f4b0-45" value="modADO" style="shape=note;whiteSpace=wrap;html=1;size=14;verticalAlign=top;align=left;spacingTop=-6;rounded=0;shadow=0;comic=0;labelBackgroundColor=none;strokeWidth=1;fontFamily=Verdana;fontSize=12" parent="1" vertex="1">
          <mxGeometry x="820" y="30" width="100" height="35" as="geometry" />
        </mxCell>
        <mxCell id="SwzVnExBsduJIMRhlSxg-3" value="" style="endArrow=classic;html=1;rounded=0;exitX=1.083;exitY=0.023;exitDx=0;exitDy=0;exitPerimeter=0;" edge="1" parent="1" source="7baba1c4bc27f4b0-9" target="SwzVnExBsduJIMRhlSxg-2">
          <mxGeometry width="50" height="50" relative="1" as="geometry">
            <mxPoint x="160" y="190" as="sourcePoint" />
            <mxPoint x="280" y="190" as="targetPoint" />
            <Array as="points">
              <mxPoint x="220" y="190" />
            </Array>
          </mxGeometry>
        </mxCell>
        <mxCell id="SwzVnExBsduJIMRhlSxg-5" value="Call" style="edgeLabel;html=1;align=center;verticalAlign=middle;resizable=0;points=[];" vertex="1" connectable="0" parent="SwzVnExBsduJIMRhlSxg-3">
          <mxGeometry x="0.2786" y="3" relative="1" as="geometry">
            <mxPoint x="-19" y="3" as="offset" />
          </mxGeometry>
        </mxCell>
        <mxCell id="SwzVnExBsduJIMRhlSxg-4" value="" style="html=1;verticalAlign=bottom;endArrow=open;dashed=1;endSize=8;edgeStyle=elbowEdgeStyle;elbow=vertical;curved=0;rounded=0;entryX=1.058;entryY=0.091;entryDx=0;entryDy=0;entryPerimeter=0;" edge="1" parent="1" target="7baba1c4bc27f4b0-9">
          <mxGeometry relative="1" as="geometry">
            <mxPoint x="290" y="220" as="sourcePoint" />
            <mxPoint x="160" y="220" as="targetPoint" />
          </mxGeometry>
        </mxCell>
        <mxCell id="SwzVnExBsduJIMRhlSxg-10" value="Username" style="html=1;verticalAlign=bottom;endArrow=open;dashed=1;endSize=8;edgeStyle=elbowEdgeStyle;elbow=vertical;curved=0;rounded=0;" edge="1" parent="1" source="SwzVnExBsduJIMRhlSxg-9">
          <mxGeometry relative="1" as="geometry">
            <mxPoint x="580" y="268" as="sourcePoint" />
            <mxPoint x="455" y="268" as="targetPoint" />
            <Array as="points">
              <mxPoint x="490" y="268" />
            </Array>
          </mxGeometry>
        </mxCell>
        <mxCell id="SwzVnExBsduJIMRhlSxg-19" value="" style="endArrow=classic;html=1;rounded=0;" edge="1" parent="1" target="SwzVnExBsduJIMRhlSxg-18" source="7baba1c4bc27f4b0-4">
          <mxGeometry width="50" height="50" relative="1" as="geometry">
            <mxPoint x="595" y="285" as="sourcePoint" />
            <mxPoint x="720" y="285" as="targetPoint" />
            <Array as="points">
              <mxPoint x="665" y="285" />
            </Array>
          </mxGeometry>
        </mxCell>
        <mxCell id="SwzVnExBsduJIMRhlSxg-20" value="Call" style="edgeLabel;html=1;align=center;verticalAlign=middle;resizable=0;points=[];" vertex="1" connectable="0" parent="SwzVnExBsduJIMRhlSxg-19">
          <mxGeometry x="0.2786" y="3" relative="1" as="geometry">
            <mxPoint x="-19" y="3" as="offset" />
          </mxGeometry>
        </mxCell>
        <mxCell id="SwzVnExBsduJIMRhlSxg-21" value="" style="html=1;verticalAlign=bottom;endArrow=open;dashed=1;endSize=8;edgeStyle=elbowEdgeStyle;elbow=vertical;curved=0;rounded=0;" edge="1" parent="1" source="SwzVnExBsduJIMRhlSxg-18" target="7baba1c4bc27f4b0-4">
          <mxGeometry relative="1" as="geometry">
            <mxPoint x="720" y="310" as="sourcePoint" />
            <mxPoint x="595" y="310" as="targetPoint" />
            <Array as="points">
              <mxPoint x="630" y="310" />
            </Array>
          </mxGeometry>
        </mxCell>
        <mxCell id="SwzVnExBsduJIMRhlSxg-23" value="AccessGranted" style="edgeLabel;html=1;align=center;verticalAlign=middle;resizable=0;points=[];" vertex="1" connectable="0" parent="SwzVnExBsduJIMRhlSxg-21">
          <mxGeometry x="-0.1554" relative="1" as="geometry">
            <mxPoint as="offset" />
          </mxGeometry>
        </mxCell>
        <mxCell id="SwzVnExBsduJIMRhlSxg-24" value="checkConnetion" style="shape=umlLifeline;perimeter=lifelinePerimeter;whiteSpace=wrap;html=1;container=1;collapsible=0;recursiveResize=0;outlineConnect=0;rounded=1;shadow=0;comic=0;labelBackgroundColor=none;strokeWidth=1;fontFamily=Verdana;fontSize=12;align=center;" vertex="1" parent="1">
          <mxGeometry x="820" y="80" width="100" height="580" as="geometry" />
        </mxCell>
        <mxCell id="SwzVnExBsduJIMRhlSxg-25" value="" style="html=1;points=[];perimeter=orthogonalPerimeter;outlineConnect=0;targetShapes=umlLifeline;portConstraint=eastwest;newEdgeStyle={&quot;edgeStyle&quot;:&quot;elbowEdgeStyle&quot;,&quot;elbow&quot;:&quot;vertical&quot;,&quot;curved&quot;:0,&quot;rounded&quot;:0};" vertex="1" parent="SwzVnExBsduJIMRhlSxg-24">
          <mxGeometry x="45" y="274.5" width="10" height="31" as="geometry" />
        </mxCell>
        <mxCell id="SwzVnExBsduJIMRhlSxg-39" value="" style="html=1;verticalAlign=bottom;endArrow=open;dashed=1;endSize=8;edgeStyle=elbowEdgeStyle;elbow=vertical;curved=0;rounded=0;" edge="1" parent="SwzVnExBsduJIMRhlSxg-24" target="7baba1c4bc27f4b0-8">
          <mxGeometry relative="1" as="geometry">
            <mxPoint x="45" y="300" as="sourcePoint" />
            <mxPoint x="-250" y="300" as="targetPoint" />
            <Array as="points">
              <mxPoint x="-50" y="300" />
            </Array>
          </mxGeometry>
        </mxCell>
        <mxCell id="SwzVnExBsduJIMRhlSxg-32" value="modADO" style="shape=note;whiteSpace=wrap;html=1;size=14;verticalAlign=top;align=left;spacingTop=-6;rounded=0;shadow=0;comic=0;labelBackgroundColor=none;strokeWidth=1;fontFamily=Verdana;fontSize=12" vertex="1" parent="1">
          <mxGeometry x="950" y="30" width="100" height="35" as="geometry" />
        </mxCell>
        <mxCell id="SwzVnExBsduJIMRhlSxg-33" value="CheckForUpdate" style="shape=umlLifeline;perimeter=lifelinePerimeter;whiteSpace=wrap;html=1;container=1;collapsible=0;recursiveResize=0;outlineConnect=0;rounded=1;shadow=0;comic=0;labelBackgroundColor=none;strokeWidth=1;fontFamily=Verdana;fontSize=12;align=center;" vertex="1" parent="1">
          <mxGeometry x="950" y="80" width="100" height="580" as="geometry" />
        </mxCell>
        <mxCell id="SwzVnExBsduJIMRhlSxg-34" value="" style="html=1;points=[];perimeter=orthogonalPerimeter;outlineConnect=0;targetShapes=umlLifeline;portConstraint=eastwest;newEdgeStyle={&quot;edgeStyle&quot;:&quot;elbowEdgeStyle&quot;,&quot;elbow&quot;:&quot;vertical&quot;,&quot;curved&quot;:0,&quot;rounded&quot;:0};" vertex="1" parent="SwzVnExBsduJIMRhlSxg-33">
          <mxGeometry x="45" y="320" width="10" height="31" as="geometry" />
        </mxCell>
        <mxCell id="SwzVnExBsduJIMRhlSxg-40" value="" style="html=1;verticalAlign=bottom;endArrow=open;dashed=1;endSize=8;edgeStyle=elbowEdgeStyle;elbow=vertical;curved=0;rounded=0;" edge="1" parent="SwzVnExBsduJIMRhlSxg-33" target="7baba1c4bc27f4b0-8">
          <mxGeometry relative="1" as="geometry">
            <mxPoint x="45" y="345" as="sourcePoint" />
            <mxPoint x="-250" y="345" as="targetPoint" />
            <Array as="points">
              <mxPoint x="-50" y="345" />
            </Array>
          </mxGeometry>
        </mxCell>
        <mxCell id="SwzVnExBsduJIMRhlSxg-35" value="" style="endArrow=classic;html=1;rounded=0;" edge="1" parent="1" target="SwzVnExBsduJIMRhlSxg-24">
          <mxGeometry width="50" height="50" relative="1" as="geometry">
            <mxPoint x="160" y="360" as="sourcePoint" />
            <mxPoint x="450" y="360" as="targetPoint" />
            <Array as="points">
              <mxPoint x="230" y="360" />
            </Array>
          </mxGeometry>
        </mxCell>
        <mxCell id="SwzVnExBsduJIMRhlSxg-36" value="Call" style="edgeLabel;html=1;align=center;verticalAlign=middle;resizable=0;points=[];" vertex="1" connectable="0" parent="SwzVnExBsduJIMRhlSxg-35">
          <mxGeometry x="0.2786" y="3" relative="1" as="geometry">
            <mxPoint x="-19" y="3" as="offset" />
          </mxGeometry>
        </mxCell>
      </root>
    </mxGraphModel>
  </diagram>
</mxfile>
